# vtk DataFile Version 5.1
vtk output
ASCII
DATASET TABLE
ROW_DATA 583
FIELD FieldData 2
Persistence%20(minimum-saddle%20pairs) 1 583 double
1.1995434761e-06 4.9024820328e-06 7.5995922089e-06 7.7001750469e-06 9.0003013611e-06 9.3020498753e-06 1.2699514627e-05 1.2900680304e-05 1.4498829842e-05 
1.7300248146e-05 1.8201768398e-05 1.918990165e-05 2.0012259483e-05 2.0697712898e-05 2.1398067474e-05 2.2100284696e-05 2.5797635317e-05 2.6397407055e-05 
3.2398849726e-05 3.2799318433e-05 3.4499913454e-05 3.5900622606e-05 3.7498772144e-05 3.8824975491e-05 4.1000545025e-05 4.2006373405e-05 4.2200088501e-05 
4.3500214815e-05 4.5903027058e-05 5.0000846386e-05 5.0399452448e-05 5.0500035286e-05 5.1196664572e-05 5.2800402045e-05 6.5103173256e-05 6.5799802542e-05 
6.6600739956e-05 6.7196786404e-05 6.8001449108e-05 7.0795416832e-05 7.1000307798e-05 7.1100890636e-05 7.1600079536e-05 7.9602003098e-05 8.6396932602e-05 
9.1601163149e-05 9.3996524811e-05 9.959936142e-05 9.9601224065e-05 0.00010339915752 0.00010859966278 0.00011200085282 0.00011539831758 0.00012050196528 
0.00012169964612 0.00012397998944 0.00012509897351 0.00012999773026 0.00013050064445 0.00013099610806 0.00013179890811 0.00013409554958 0.00013579986989 
0.00013580173254 0.00013769418001 0.00014160014689 0.00014299154282 0.000144302845 0.00014960020781 0.00015220046043 0.00015269964933 0.0001558996737 
0.00015749782324 0.00015860050917 0.00016060099006 0.00016402034089 0.00016460567713 0.00017200037837 0.00017349794507 0.00017400085926 0.00017499923706 
0.00017789937556 0.00018290057778 0.0001884996891 0.00018889829516 0.00019000098109 0.00019250065088 0.00019340217113 0.00019388995133 0.00019650161266 
0.00019930303097 0.00020535988733 0.00020840018988 0.00020959973335 0.00021050032228 0.0002129971981 0.00021339952946 0.0002158023417 0.00021889805794 
0.00022699683905 0.00022909790277 0.0002311989665 0.00023150444031 0.00023179873824 0.00023860111833 0.0002393014729 0.00023949891329 0.00024110078812 
0.00024259835482 0.00025040097535 0.00025440007448 0.00025490997359 0.00025871023536 0.0002594999969 0.00026029907167 0.00026039779186 0.00026400387287 
0.00027989968657 0.00028089992702 0.00028999149799 0.00029098987579 0.00029119849205 0.00029440224171 0.00029800087214 0.00029900670052 0.00030199810863 
0.00030370056629 0.00031410157681 0.00031629949808 0.00031640008092 0.00031690299511 0.00032280385494 0.00032499432564 0.00033319927752 0.00033599883318 
0.00033723004162 0.00033780187368 0.00035312003456 0.00035329908133 0.00035710260272 0.00035800039768 0.00036570057273 0.00036830082536 0.00037100166082 
0.00037629203871 0.00038290023804 0.00039209984243 0.00040669739246 0.00040889903903 0.00041089951992 0.000414095819 0.00041480362415 0.00043100118637 
0.00043189525604 0.00043399631977 0.00043990090489 0.00044180080295 0.00044599920511 0.00044839829206 0.00045609846711 0.00046210968867 0.00046350061893 
0.00047280266881 0.00047900155187 0.00048280134797 0.00048290193081 0.00049389991909 0.00049629807472 0.00050310045481 0.00050399824977 0.000522993505 
0.00054970011115 0.0005563700106 0.00055760145187 0.00056009925902 0.00056859850883 0.00057259947062 0.00057364202803 0.00057560019195 0.00057599693537 
0.00057700276375 0.00058080255985 0.0005914978683 0.00060816993937 0.00060879811645 0.00062169041485 0.00062780082226 0.00063339993358 0.00063589960337 
0.00063860043883 0.00064039975405 0.0006422996521 0.00064489990473 0.00064599514008 0.00069186999463 0.00069754011929 0.00069830566645 0.00070820003748 
0.0007089972496 0.00071070343256 0.00071564991958 0.00072109699249 0.00072199851274 0.00073320418596 0.00073419883847 0.00074189901352 0.00076501071453 
0.00077649950981 0.00078299921006 0.00078639946878 0.00079370290041 0.00079420022666 0.00079970061779 0.00080400705338 0.00080700218678 0.00080900080502 
0.00081460177898 0.00081499991938 0.00083360075951 0.00083599984646 0.00085369870067 0.0008729994297 0.00087710469961 0.00087729841471 0.00088049983606 
0.00089169852436 0.00092159956694 0.00093519967049 0.00096085015684 0.00096199661493 0.00096790120006 0.00098279863596 0.00098440051079 0.00099033024162 
0.00099560059607 0.0010100007057 0.0010325983167 0.0010344604962 0.0010791011155 0.0010849013925 0.0010936036706 0.0010992996395 0.0011116992682 
0.0011161006987 0.0011167991906 0.0011317022145 0.0011330097914 0.0011342000216 0.0011390000582 0.0011480972171 0.001184001565 0.0011930018663 
0.0012063011527 0.001206798479 0.0012179985642 0.0012269988656 0.0012330114841 0.0012483000755 0.001256801188 0.0012651011348 0.0012945011258 
0.0013117007911 0.0013581011444 0.0013837013394 0.0013903975487 0.0014000013471 0.0014019012451 0.0014061999973 0.0014267005026 0.0014482997358 
0.0014510005713 0.0014559198171 0.0014619976282 0.0014619994909 0.0014899969101 0.0014942009002 0.0015041977167 0.0015047043562 0.0015232004225 
0.001525297761 0.0015362994745 0.0015392974019 0.0015465021133 0.001554004848 0.0015714697074 0.0015739053488 0.0015929043293 0.0015975981951 
0.0016143005341 0.0016214028001 0.0016318000853 0.0016415007412 0.0016509965062 0.0016693994403 0.001685500145 0.0016955025494 0.0017012991011 
0.0017288201489 0.0017511006445 0.0017518997192 0.0017713978887 0.0017718970776 0.0017836987972 0.0017850100994 0.0018236041069 0.0018302984536 
0.0018487051129 0.0018789991736 0.0019203014672 0.001959502697 0.0019606985152 0.0019720047712 0.0019783973694 0.0019856020808 0.0019864998758 
0.001991010271 0.001997102052 0.002008497715 0.0020469985902 0.0020469999872 0.0020490298048 0.0021208003163 0.0021342001855 0.0021674931049 
0.002184798941 0.0022120028734 0.0022189989686 0.0022223964334 0.0022270083427 0.0022340994328 0.0022577941418 0.0022709965706 0.0022769798525 
0.0023304000497 0.0023309066892 0.0023395977914 0.0023464970291 0.0023506991565 0.0023657009006 0.0024080984294 0.0024171993136 0.0024437978864 
0.0024487990886 0.0024560019374 0.0024597011507 0.0024717003107 0.0024739950895 0.0025054104626 0.0025169998407 0.0025223297998 0.0025500953197 
0.0025637401268 0.0025740992278 0.0025948025286 0.0026001986116 0.0026021990925 0.0026919990778 0.0027044042945 0.0027380995452 0.0027764011174 
0.0028265975416 0.0028452053666 0.0028884001076 0.002900801599 0.0029053069302 0.0029476005584 0.002954499796 0.0029641985893 0.0029817000031 
0.0030043013394 0.0030065900646 0.0030067004263 0.0030169934034 0.0030441954732 0.0030618980527 0.003107920289 0.0031169950962 0.0031416006386 
0.0031480044127 0.0031507983804 0.0031547024846 0.0031575933099 0.0031800046563 0.0031828954816 0.0032159984112 0.0032414998859 0.0032429993153 
0.0032653063536 0.0032679997385 0.0032745972276 0.0032767020166 0.0032967301086 0.0033177956939 0.0033321697265 0.0033419951797 0.0033668018878 
0.0033676028252 0.0034203007817 0.0034395009279 0.0034726988524 0.0035118982196 0.0035299956799 0.0035379007459 0.0036382004619 0.0036721006036 
0.0036766007543 0.0037129968405 0.0037496015429 0.003756403923 0.0037855952978 0.0038063004613 0.0038660019636 0.0039505958557 0.0039709955454 
0.0039769001305 0.0039812996984 0.0040165036917 0.0040237978101 0.0040284991264 0.0041640102863 0.0041791982949 0.0041892006993 0.0042028296739 
0.0042154993862 0.0042706020176 0.0042796060443 0.0042935013771 0.0044603012502 0.0045244023204 0.004528099671 0.0045511983335 0.0045529007912 
0.0045676007867 0.0045708939433 0.0045993998647 0.004613449797 0.0046370029449 0.00468919985 0.0047171004117 0.0047942996025 0.0048160031438 
0.0048545002937 0.0049147978425 0.004956997931 0.0049830004573 0.004996429896 0.0050090029836 0.0050280094147 0.005032800138 0.0050839930773 
0.0051528901095 0.0051854997873 0.0052558034658 0.0052570011467 0.005288399756 0.0052915997803 0.005312897265 0.0055029019713 0.0055537000299 
0.0056033395231 0.0057053994387 0.005707799457 0.0057242959738 0.0057547017932 0.0058301985264 0.0058350004256 0.0058568008244 0.0059025026858 
0.0059050023556 0.0059160999954 0.0059369951487 0.0059813037515 0.006121493876 0.0062130987644 0.0062420032918 0.0063899978995 0.0064029498026 
0.0064436998218 0.0065776403062 0.0066330004483 0.0066339969635 0.0066555999219 0.0066697020084 0.0067876949906 0.0068556033075 0.0068586990237 
0.0068830028176 0.0068909972906 0.006983860163 0.0069854995236 0.0070353797637 0.007046898827 0.0070573017001 0.0070880055428 0.0071039013565 
0.0071118995547 0.0071256102528 0.0071351975203 0.0072088986635 0.0073736980557 0.007374599576 0.0075230002403 0.0075424015522 0.0076116994023 
0.0076547395438 0.0078170001507 0.0079066995531 0.0079757501371 0.0080368965864 0.0080372989178 0.0082798991352 0.0082881972194 0.0082949995995 
0.0084251016378 0.0084333010018 0.0085213016719 0.0085518697742 0.0086876004934 0.0087419971824 0.0093924030662 0.0098516796716 0.0098880007863 
0.0099814981222 0.010076697916 0.010149859823 0.010186001658 0.010297399014 0.010682299733 0.010803997517 0.010888000019 0.010977998376 
0.01113049686 0.01115899533 0.011316129938 0.011457700282 0.011586010456 0.011620000005 0.011714400724 0.011866904795 0.011878699064 
0.011888699606 0.0119052995 0.012513004243 0.012530395295 0.012541700155 0.013368900865 0.013425000012 0.013440996408 0.013886097819 
0.014158301055 0.014347070362 0.014573991299 0.014963597059 0.015052799135 0.01538579911 0.015731750987 0.016155198216 0.016817301512 
0.017333298922 0.017390200868 0.017932996154 0.018522999948 0.019144400954 0.01959310472 0.021331299096 0.021365199238 0.027516897768 
0.073488701135 0.078779002652 0.080881401896 0.083991199732 0.088198598474 0.091919997707 0.094767097384 0.098740799353 0.10046580061 
0.10807679128 0.109684797 0.11025649682 0.15816164424 0.15835169004 0.16435428523 0.39319099486 
Number%20Of%20Pairs%20(minimum-saddle%20pairs) 1 583 int
583 582 581 580 579 578 577 576 575 
574 573 572 571 570 569 568 567 566 
565 564 563 562 561 560 559 558 557 
556 555 554 553 552 551 550 549 548 
547 546 545 544 543 542 541 540 539 
538 537 536 535 534 533 532 531 530 
529 528 527 526 525 524 523 522 521 
520 519 518 517 516 515 514 513 512 
511 510 509 508 507 506 505 504 503 
502 501 500 499 498 497 496 495 494 
493 492 491 490 489 488 487 486 485 
484 483 482 481 480 479 478 477 476 
475 474 473 472 471 470 469 468 467 
466 465 464 463 462 461 460 459 458 
457 456 455 454 453 452 451 450 449 
448 447 446 445 444 443 442 441 440 
439 438 437 436 435 434 433 432 431 
430 429 428 427 426 425 424 423 422 
421 420 419 418 417 416 415 414 413 
412 411 410 409 408 407 406 405 404 
403 402 401 400 399 398 397 396 395 
394 393 392 391 390 389 388 387 386 
385 384 383 382 381 380 379 378 377 
376 375 374 373 372 371 370 369 368 
367 366 365 364 363 362 361 360 359 
358 357 356 355 354 353 352 351 350 
349 348 347 346 345 344 343 342 341 
340 339 338 337 336 335 334 333 332 
331 330 329 328 327 326 325 324 323 
322 321 320 319 318 317 316 315 314 
313 312 311 310 309 308 307 306 305 
304 303 302 301 300 299 298 297 296 
295 294 293 292 291 290 289 288 287 
286 285 284 283 282 281 280 279 278 
277 276 275 274 273 272 271 270 269 
268 267 266 265 264 263 262 261 260 
259 258 257 256 255 254 253 252 251 
250 249 248 247 246 245 244 243 242 
241 240 239 238 237 236 235 234 233 
232 231 230 229 228 227 226 225 224 
223 222 221 220 219 218 217 216 215 
214 213 212 211 210 209 208 207 206 
205 204 203 202 201 200 199 198 197 
196 195 194 193 192 191 190 189 188 
187 186 185 184 183 182 181 180 179 
178 177 176 175 174 173 172 171 170 
169 168 167 166 165 164 163 162 161 
160 159 158 157 156 155 154 153 152 
151 150 149 148 147 146 145 144 143 
142 141 140 139 138 137 136 135 134 
133 132 131 130 129 128 127 126 125 
124 123 122 121 120 119 118 117 116 
115 114 113 112 111 110 109 108 107 
106 105 104 103 102 101 100 99 98 
97 96 95 94 93 92 91 90 89 
88 87 86 85 84 83 82 81 80 
79 78 77 76 75 74 73 72 71 
70 69 68 67 66 65 64 63 62 
61 60 59 58 57 56 55 54 53 
52 51 50 49 48 47 46 45 44 
43 42 41 40 39 38 37 36 35 
34 33 32 31 30 29 28 27 26 
25 24 23 22 21 20 19 18 17 
16 15 14 13 12 11 10 9 8 
7 6 5 4 3 2 1 
